# Blender 5.0.0
# www.blender.org
mtllib cross.mtl
o Cube
v -0.208371 0.008238 0.140672
v -0.138350 0.008238 0.138350
v -0.140672 0.008238 0.208371
v -0.175759 0.025472 0.208289
v -0.208289 0.025472 0.175759
v -0.175759 0.363549 0.208289
v -0.140568 0.381853 0.206753
v -0.138350 0.387032 0.138350
v -0.206753 0.381853 0.140568
v -0.208289 0.363549 0.175759
v -0.208371 0.008238 -0.140672
v -0.208289 0.025472 -0.175759
v -0.175759 0.025472 -0.208289
v -0.140672 0.008238 -0.208371
v -0.138350 0.008238 -0.138350
v -0.206753 0.381853 -0.140568
v -0.138350 0.387032 -0.138350
v -0.140568 0.381853 -0.206753
v -0.175759 0.363549 -0.208289
v -0.208289 0.363549 -0.175759
v 0.208371 0.008238 0.140672
v 0.208289 0.025472 0.175759
v 0.175759 0.025472 0.208289
v 0.140672 0.008238 0.208371
v 0.138350 0.008238 0.138350
v 0.206753 0.381853 0.140568
v 0.138350 0.387032 0.138350
v 0.140568 0.381853 0.206753
v 0.175759 0.363549 0.208289
v 0.208289 0.363549 0.175759
v 0.140672 0.008238 -0.208371
v 0.175759 0.025472 -0.208289
v 0.208289 0.025472 -0.175759
v 0.208371 0.008238 -0.140672
v 0.138350 0.008238 -0.138350
v 0.140568 0.381853 -0.206753
v 0.138350 0.387032 -0.138350
v 0.206753 0.381853 -0.140568
v 0.208289 0.363549 -0.175759
v 0.175759 0.363549 -0.208289
v -1.102311 0.025472 0.237154
v -1.137239 0.025472 0.204542
v -1.102229 0.008238 0.202056
v -1.102311 0.224884 0.237154
v -1.103847 0.242711 0.202174
v -1.137239 0.220298 0.204542
v -1.103847 0.242711 -0.202174
v -1.102311 0.224884 -0.237154
v -1.137239 0.220298 -0.204542
v -1.102311 0.025472 -0.237154
v -1.102229 0.008238 -0.202056
v -1.137239 0.025472 -0.204542
v -0.237154 0.025472 -1.102311
v -0.204542 0.025472 -1.137239
v -0.202056 0.008238 -1.102229
v -0.237154 0.224884 -1.102311
v -0.202174 0.242711 -1.103847
v -0.204542 0.220298 -1.137239
v 0.202174 0.242711 -1.103847
v 0.237154 0.224884 -1.102311
v 0.204542 0.220298 -1.137239
v 0.237154 0.025472 -1.102311
v 0.202056 0.008238 -1.102229
v 0.204542 0.025472 -1.137239
v 1.102311 0.025472 -0.237154
v 1.137239 0.025472 -0.204542
v 1.102229 0.008238 -0.202056
v 1.102311 0.224884 -0.237154
v 1.103847 0.242711 -0.202174
v 1.137239 0.220298 -0.204542
v 1.103847 0.242711 0.202174
v 1.102311 0.224884 0.237154
v 1.137239 0.220298 0.204542
v 1.102311 0.025472 0.237154
v 1.102229 0.008238 0.202056
v 1.137239 0.025472 0.204542
v 0.237154 0.025472 1.102311
v 0.204542 0.025472 1.137239
v 0.202056 0.008238 1.102229
v 0.237154 0.224884 1.102311
v 0.202174 0.242711 1.103847
v 0.204542 0.220298 1.137239
v -0.202174 0.242711 1.103847
v -0.237154 0.224884 1.102311
v -0.204542 0.220298 1.137239
v -0.237154 0.025472 1.102311
v -0.202056 0.008238 1.102229
v -0.204542 0.025472 1.137239
vn -0.0431 -0.9888 0.1425
vn -0.0437 -0.9981 0.0437
vn -0.1425 -0.9888 0.0431
vn -0.5922 -0.7759 0.2174
vn -0.2174 -0.7759 0.5922
vn -0.5857 0.7599 0.2819
vn -0.1478 0.9775 0.1503
vn -0.0719 0.9948 0.0719
vn -0.1503 0.9775 0.1478
vn -0.2819 0.7599 0.5857
vn -0.0431 -0.9888 -0.1425
vn -0.2174 -0.7759 -0.5922
vn -0.5922 -0.7759 -0.2174
vn -0.1425 -0.9888 -0.0431
vn -0.0437 -0.9981 -0.0437
vn -0.1503 0.9775 -0.1478
vn -0.0719 0.9948 -0.0719
vn -0.1478 0.9775 -0.1503
vn -0.5857 0.7599 -0.2819
vn -0.2819 0.7599 -0.5857
vn 0.0431 -0.9888 0.1425
vn 0.2174 -0.7759 0.5922
vn 0.5922 -0.7759 0.2174
vn 0.1425 -0.9888 0.0431
vn 0.0437 -0.9981 0.0437
vn 0.1503 0.9775 0.1478
vn 0.0719 0.9948 0.0719
vn 0.1478 0.9775 0.1503
vn 0.5857 0.7599 0.2819
vn 0.2819 0.7599 0.5857
vn 0.1425 -0.9888 -0.0431
vn 0.5922 -0.7759 -0.2174
vn 0.2174 -0.7759 -0.5922
vn 0.0431 -0.9888 -0.1425
vn 0.0437 -0.9981 -0.0437
vn 0.1478 0.9775 -0.1503
vn 0.0719 0.9948 -0.0719
vn 0.1503 0.9775 -0.1478
vn 0.2819 0.7599 -0.5857
vn 0.5857 0.7599 -0.2819
vn -0.2545 -0.5972 0.7606
vn -0.7414 -0.5972 0.3060
vn -0.1756 -0.9663 0.1881
vn -0.3170 0.5384 0.7808
vn -0.2988 0.9325 0.2027
vn -0.8075 0.4962 0.3190
vn -0.2988 0.9325 -0.2027
vn -0.3170 0.5384 -0.7808
vn -0.8075 0.4962 -0.3190
vn -0.2545 -0.5972 -0.7606
vn -0.1756 -0.9663 -0.1881
vn -0.7414 -0.5972 -0.3060
vn -0.7606 -0.5972 -0.2545
vn -0.3060 -0.5972 -0.7414
vn -0.1881 -0.9663 -0.1756
vn -0.7808 0.5384 -0.3170
vn -0.2027 0.9325 -0.2988
vn -0.3190 0.4962 -0.8075
vn 0.2027 0.9325 -0.2988
vn 0.7808 0.5384 -0.3170
vn 0.3190 0.4962 -0.8075
vn 0.7606 -0.5972 -0.2545
vn 0.1881 -0.9663 -0.1756
vn 0.3060 -0.5972 -0.7414
vn 0.2545 -0.5972 -0.7606
vn 0.7414 -0.5972 -0.3060
vn 0.1756 -0.9663 -0.1881
vn 0.3170 0.5384 -0.7808
vn 0.2988 0.9325 -0.2027
vn 0.8075 0.4962 -0.3190
vn 0.2988 0.9325 0.2027
vn 0.3170 0.5384 0.7808
vn 0.8075 0.4962 0.3190
vn 0.2545 -0.5972 0.7606
vn 0.1756 -0.9663 0.1881
vn 0.7414 -0.5972 0.3060
vn 0.7606 -0.5972 0.2545
vn 0.3060 -0.5972 0.7414
vn 0.1881 -0.9663 0.1756
vn 0.7808 0.5384 0.3170
vn 0.2027 0.9325 0.2988
vn 0.3190 0.4962 0.8075
vn -0.2027 0.9325 0.2988
vn -0.7808 0.5384 0.3170
vn -0.3190 0.4962 0.8075
vn -0.7606 -0.5972 0.2545
vn -0.1881 -0.9663 0.1756
vn -0.3060 -0.5972 0.7414
vt 0.375000 0.024341
vt 0.375000 0.025244
vt 0.375000 0.000000
vt 0.380687 0.000000
vt 0.384192 0.000000
vt 0.609682 0.000000
vt 0.621582 0.000000
vt 0.625000 0.012622
vt 0.624934 0.018281
vt 0.612502 0.000000
vt 0.375000 0.225659
vt 0.384192 0.250000
vt 0.384192 0.250000
vt 0.375000 0.266228
vt 0.375000 0.224756
vt 0.624934 0.231719
vt 0.625000 0.250000
vt 0.624145 0.268281
vt 0.611842 0.250000
vt 0.612502 0.250000
vt 0.375000 0.731744
vt 0.384192 0.750000
vt 0.384192 0.750000
vt 0.375000 0.774341
vt 0.362378 0.750000
vt 0.624145 0.731719
vt 0.637622 0.743689
vt 0.624934 0.768281
vt 0.612502 0.750000
vt 0.611842 0.750000
vt 0.363215 0.487829
vt 0.384192 0.500000
vt 0.384192 0.500000
vt 0.375000 0.524148
vt 0.349756 0.525244
vt 0.624934 0.481719
vt 0.637622 0.506311
vt 0.624145 0.518281
vt 0.611842 0.500000
vt 0.612502 0.500000
vt 0.392545 0.000000
vt 0.393790 0.018269
vt 0.375000 0.018931
vt 0.607162 0.000000
vt 0.625000 0.018905
vt 0.606210 0.018269
vt 0.625000 0.231095
vt 0.607162 0.250000
vt 0.606210 0.231731
vt 0.392545 0.250000
vt 0.375000 0.231069
vt 0.393790 0.231731
vt 0.392545 0.250000
vt 0.393790 0.268269
vt 0.375000 0.268931
vt 0.607162 0.250000
vt 0.625000 0.268905
vt 0.606210 0.268269
vt 0.625000 0.481095
vt 0.607162 0.500000
vt 0.606210 0.481731
vt 0.392545 0.500000
vt 0.375000 0.481069
vt 0.393790 0.481731
vt 0.392545 0.500000
vt 0.393790 0.518269
vt 0.375000 0.518931
vt 0.607162 0.500000
vt 0.625000 0.518905
vt 0.606210 0.518269
vt 0.625000 0.731095
vt 0.607162 0.750000
vt 0.606210 0.731731
vt 0.392545 0.750000
vt 0.375000 0.731069
vt 0.393790 0.731731
vt 0.392545 0.750000
vt 0.393790 0.768269
vt 0.375000 0.768931
vt 0.607162 0.750000
vt 0.625000 0.768905
vt 0.606210 0.768269
vt 0.625000 0.981095
vt 0.607162 1.000000
vt 0.606210 0.981731
vt 0.392545 1.000000
vt 0.375000 0.981069
vt 0.393790 0.981731
vt 0.150244 0.525244
vt 0.148570 0.500000
vt 0.375000 0.974756
vt 0.375000 0.975659
vt 0.625000 0.974756
vt 0.625000 0.975626
vt 0.612502 1.000000
vt 0.387257 1.000000
vt 0.150244 0.724756
vt 0.849756 0.525244
vt 0.849756 0.724756
s 1
f 1/1/1 2/2/2 3/3/3 4/4/4 5/5/5
f 6/6/6 7/7/7 8/8/8 9/9/9 10/10/10
f 11/11/11 12/12/12 13/13/13 14/14/14 15/15/15
f 16/16/16 17/17/17 18/18/18 19/19/19 20/20/20
f 21/21/21 22/22/22 23/23/23 24/24/24 25/25/25
f 26/26/26 27/27/27 28/28/28 29/29/29 30/30/30
f 31/31/31 32/32/32 33/33/33 34/34/34 35/35/35
f 36/36/36 37/37/37 38/38/38 39/39/39 40/40/40
f 41/41/41 42/42/42 43/43/43
f 44/44/44 45/45/45 46/46/46
f 47/47/47 48/48/48 49/49/49
f 50/50/50 51/51/51 52/52/52
f 53/53/53 54/54/54 55/55/55
f 56/56/56 57/57/57 58/58/58
f 59/59/59 60/60/60 61/61/61
f 62/62/62 63/63/63 64/64/64
f 65/65/65 66/66/66 67/67/67
f 68/68/68 69/69/69 70/70/70
f 71/71/71 72/72/72 73/73/73
f 74/74/74 75/75/75 76/76/76
f 77/77/77 78/78/78 79/79/79
f 80/80/80 81/81/81 82/82/82
f 83/83/83 84/84/84 85/85/85
f 86/86/86 87/87/87 88/88/88
f 15/15/15 2/2/2 1/1/1 11/11/11
f 4/4/4 6/6/6 10/10/10 5/5/5
f 8/8/8 17/17/17 16/16/16 9/9/9
f 19/19/19 13/13/13 12/12/12 20/20/20
f 35/35/35 15/89/15 14/90/14 31/31/31
f 17/17/17 37/37/37 36/36/36 18/18/18
f 39/39/39 33/33/33 32/32/32 40/40/40
f 25/25/25 35/35/35 34/34/34 21/21/21
f 37/37/37 27/27/27 26/26/26 38/38/38
f 29/29/29 23/23/23 22/22/22 30/30/30
f 2/91/2 25/25/25 24/24/24 3/92/3
f 27/27/27 8/93/8 7/94/7 28/28/28
f 46/46/46 42/42/42 41/41/41 44/44/44
f 49/49/49 46/46/46 45/45/45 47/47/47
f 52/52/52 49/49/49 48/48/48 50/50/50
f 42/42/42 52/52/52 51/51/51 43/43/43
f 9/9/9 45/45/45 44/44/44 10/10/10
f 43/43/43 1/1/1 5/5/5 41/41/41
f 20/20/20 48/48/48 47/47/47 16/16/16
f 11/11/11 51/51/51 50/50/50 12/12/12
f 58/58/58 54/54/54 53/53/53 56/56/56
f 61/61/61 58/58/58 57/57/57 59/59/59
f 64/64/64 61/61/61 60/60/60 62/62/62
f 54/54/54 64/64/64 63/63/63 55/55/55
f 18/18/18 57/57/57 56/56/56 19/19/19
f 55/55/55 14/14/14 13/13/13 53/53/53
f 40/40/40 60/60/60 59/59/59 36/36/36
f 31/31/31 63/63/63 62/62/62 32/32/32
f 70/70/70 66/66/66 65/65/65 68/68/68
f 73/73/73 70/70/70 69/69/69 71/71/71
f 76/76/76 73/73/73 72/72/72 74/74/74
f 66/66/66 76/76/76 75/75/75 67/67/67
f 38/38/38 69/69/69 68/68/68 39/39/39
f 67/67/67 34/34/34 33/33/33 65/65/65
f 30/30/30 72/72/72 71/71/71 26/26/26
f 21/21/21 75/75/75 74/74/74 22/22/22
f 82/82/82 78/78/78 77/77/77 80/80/80
f 85/85/85 82/82/82 81/81/81 83/83/83
f 88/88/88 85/85/85 84/84/84 86/86/86
f 78/78/78 88/88/88 87/87/87 79/79/79
f 28/28/28 81/81/81 80/80/80 29/29/29
f 79/79/79 24/24/24 23/23/23 77/77/77
f 6/95/6 84/84/84 83/83/83 7/94/7
f 3/92/3 87/87/87 86/86/86 4/96/4
f 1/1/1 43/43/43 51/51/51 11/11/11
f 4/96/4 86/86/86 84/84/84 6/95/6
f 15/89/15 35/35/35 25/25/25 2/97/2
f 10/10/10 44/44/44 41/41/41 5/5/5
f 24/24/24 79/79/79 87/87/87 3/92/3
f 16/16/16 47/47/47 45/45/45 9/9/9
f 37/37/37 17/98/17 8/99/8 27/27/27
f 7/94/7 83/83/83 81/81/81 28/28/28
f 19/19/19 56/56/56 53/53/53 13/13/13
f 12/12/12 50/50/50 48/48/48 20/20/20
f 14/14/14 55/55/55 63/63/63 31/31/31
f 36/36/36 59/59/59 57/57/57 18/18/18
f 34/34/34 67/67/67 75/75/75 21/21/21
f 29/29/29 80/80/80 77/77/77 23/23/23
f 22/22/22 74/74/74 72/72/72 30/30/30
f 26/26/26 71/71/71 69/69/69 38/38/38
f 39/39/39 68/68/68 65/65/65 33/33/33
f 32/32/32 62/62/62 60/60/60 40/40/40
f 42/42/42 46/46/46 49/49/49 52/52/52
f 54/54/54 58/58/58 61/61/61 64/64/64
f 66/66/66 70/70/70 73/73/73 76/76/76
f 78/78/78 82/82/82 85/85/85 88/88/88
