# Blender 5.0.0
# www.blender.org
mtllib gold_bar.mtl
o Cube.001
v -0.468877 -0.033278 1.054726
v -0.451589 0.000027 1.076006
v -0.489297 -0.000363 1.039063
v -0.279700 0.397247 0.916402
v -0.268164 0.430552 0.868358
v -0.317070 0.397637 0.879146
v -0.468877 -0.033278 -1.054726
v -0.489297 -0.000363 -1.039063
v -0.451589 0.000027 -1.076006
v -0.268164 0.430552 -0.868358
v -0.279700 0.397247 -0.916402
v -0.317070 0.397637 -0.879146
v 0.468877 -0.033278 1.054726
v 0.489297 -0.000363 1.039063
v 0.451589 0.000027 1.076006
v 0.268164 0.430552 0.868358
v 0.279700 0.397247 0.916402
v 0.317070 0.397637 0.879146
v 0.468877 -0.033278 -1.054726
v 0.451589 0.000027 -1.076006
v 0.489297 -0.000363 -1.039063
v 0.268164 0.430552 -0.868358
v 0.317070 0.397637 -0.879146
v 0.279700 0.397247 -0.916402
vn -0.4913 -0.7211 0.4885
vn -0.3386 0.0218 0.9407
vn -0.9386 0.0310 0.3436
vn -0.2562 0.6330 0.7306
vn -0.2485 0.9344 0.2552
vn -0.7186 0.6441 0.2622
vn -0.4913 -0.7211 -0.4885
vn -0.9386 0.0310 -0.3436
vn -0.3386 0.0218 -0.9407
vn -0.2485 0.9344 -0.2552
vn -0.2562 0.6330 -0.7306
vn -0.7186 0.6441 -0.2622
vn 0.4913 -0.7211 0.4885
vn 0.9386 0.0310 0.3436
vn 0.3386 0.0218 0.9407
vn 0.2485 0.9344 0.2552
vn 0.2562 0.6330 0.7306
vn 0.7186 0.6441 0.2622
vn 0.4913 -0.7211 -0.4885
vn 0.3386 0.0218 -0.9407
vn 0.9386 0.0310 -0.3436
vn 0.2485 0.9344 -0.2552
vn 0.7186 0.6441 -0.2622
vn 0.2562 0.6330 -0.7306
vt 0.133605 0.746023
vt 0.137896 0.749232
vt 0.126768 0.744226
vt 0.613941 0.000000
vt 0.625000 0.004798
vt 0.607259 0.004765
vt 0.133605 0.503977
vt 0.126768 0.505774
vt 0.137896 0.500768
vt 0.625000 0.251571
vt 0.608772 0.259788
vt 0.607259 0.245235
vt 0.366395 0.746023
vt 0.387422 0.745258
vt 0.377527 0.754628
vt 0.632154 0.754755
vt 0.607049 0.763051
vt 0.608840 0.746426
vt 0.366395 0.503977
vt 0.377527 0.495372
vt 0.387422 0.504742
vt 0.632154 0.495245
vt 0.608840 0.503574
vt 0.607049 0.486949
vt 0.399843 0.000000
vt 0.392741 0.004398
vt 0.392951 0.260024
vt 0.392741 0.245602
vt 0.625000 0.985692
vt 0.607049 0.986949
vt 0.392951 0.989976
vt 0.860692 0.504798
vt 0.860692 0.745202
s 1
f 1/1/1 2/2/2 3/3/3
f 4/4/4 5/5/5 6/6/6
f 7/7/7 8/8/8 9/9/9
f 10/10/10 11/11/11 12/12/12
f 13/13/13 14/14/14 15/15/15
f 16/16/16 17/17/17 18/18/18
f 19/19/19 20/20/20 21/21/21
f 22/22/22 23/23/23 24/24/24
f 7/7/7 1/1/1 3/3/3 8/8/8
f 2/25/2 4/4/4 6/6/6 3/26/3
f 5/5/5 10/10/10 12/12/12 6/6/6
f 11/11/11 9/27/9 8/28/8 12/12/12
f 19/19/19 7/7/7 9/9/9 20/20/20
f 10/10/10 22/22/22 24/24/24 11/11/11
f 23/23/23 21/21/21 20/20/20 24/24/24
f 13/13/13 19/19/19 21/21/21 14/14/14
f 22/22/22 16/16/16 18/18/18 23/23/23
f 17/17/17 15/15/15 14/14/14 18/18/18
f 1/1/1 13/13/13 15/15/15 2/2/2
f 16/16/16 5/29/5 4/30/4 17/17/17
f 7/7/7 19/19/19 13/13/13 1/1/1
f 3/26/3 6/6/6 12/12/12 8/28/8
f 15/15/15 17/17/17 4/30/4 2/31/2
f 22/22/22 10/32/10 5/33/5 16/16/16
f 9/27/9 11/11/11 24/24/24 20/20/20
f 21/21/21 23/23/23 18/18/18 14/14/14
